<svg id="Bold" enable-background="new 0 0 32 32" height="512" viewBox="0 0 32 32" width="512" xmlns="http://www.w3.org/2000/svg"><path d="m26 32h-20c-3.314 0-6-2.686-6-6v-20c0-3.314 2.686-6 6-6h20c3.314 0 6 2.686 6 6v20c0 3.314-2.686 6-6 6z" fill="#e3f8fa"/><path d="m16 8.333c-4.411 0-8 3.553-8 7.919 0 3.257 2.063 6.224 5.132 7.381.264.104.57-.042.655-.315l1.5-4.741c.071-.225-.027-.468-.235-.581-.649-.354-1.052-1.023-1.052-1.744 0-1.092.897-1.98 2-1.98s2 .888 2 1.98c0 .721-.403 1.39-1.052 1.745-.208.113-.307.356-.235.581l1.5 4.741c.086.274.389.416.655.315 3.07-1.158 5.132-4.125 5.132-7.382 0-4.366-3.589-7.919-8-7.919z" fill="#26c6da"/></svg>